<?xml version="1.0" standalone="no"?>
<!DOCTYPE svg PUBLIC "-//W3C//DTD SVG 1.1//EN" "http://www.w3.org/Graphics/SVG/1.1/DTD/svg11.dtd" >
<svg xmlns="http://www.w3.org/2000/svg">
<metadata></metadata>
<defs>
<font id="corporate_sbold" horiz-adv-x="1024" >
<font-face units-per-em="2048" ascent="1374" descent="-674" />
<missing-glyph horiz-adv-x="512" />
<glyph unicode="&#xfb01;" horiz-adv-x="1155" d="M33 776v197h129v61q0 99 12 157t41 101q74 115 248 115q107 0 223 -45v-203q-105 31 -166 31q-64 0 -85 -38.5t-21 -154.5v-24h231v-197h-231v-776h-252v776h-129zM743 1243q0 67 42 108.5t110 41.5q63 0 102 -40.5t39 -105.5q0 -67 -39.5 -107t-105.5 -40 q-68 0 -108 38.5t-40 104.5zM764 0v973h252v-973h-252z" />
<glyph unicode="&#xfb02;" horiz-adv-x="1155" d="M33 776v197h129v61q0 99 12 157t41 101q74 115 248 115q107 0 223 -45v-203q-105 31 -166 31q-64 0 -85 -38.5t-21 -154.5v-24h231v-197h-231v-776h-252v776h-129zM764 0v1374h252v-1374h-252z" />
<glyph unicode="&#xfb03;" horiz-adv-x="1759" d="M33 776v197h129v61q0 99 12 157t41 101q76 115 248 115q101 0 223 -45v-203q-111 31 -166 31q-64 0 -85 -36.5t-21 -145.5v-35h352v61q0 99 12 157t41 101q74 115 248 115q107 0 223 -45v-203q-105 31 -166 31q-64 0 -85 -38.5t-21 -154.5v-24h231v-197h-231v-776h-252 v776h-352v-776h-252v776h-129zM1348 1243q0 67 41.5 108.5t109.5 41.5q63 0 102 -40.5t39 -105.5q0 -67 -39.5 -107t-105.5 -40q-68 0 -107.5 38.5t-39.5 104.5zM1368 0v973h252v-973h-252z" />
<glyph unicode="&#xfb04;" horiz-adv-x="1759" d="M33 776v197h129v61q0 99 12 157t41 101q76 115 248 115q101 0 223 -45v-203q-111 31 -166 31q-64 0 -85 -36.5t-21 -145.5v-35h352v61q0 99 12 157t41 101q74 115 248 115q107 0 223 -45v-203q-105 31 -166 31q-64 0 -85 -38.5t-21 -154.5v-24h231v-197h-231v-776h-252 v776h-352v-776h-252v776h-129zM1368 0v1374h252v-1374h-252z" />
<glyph horiz-adv-x="0" />
<glyph horiz-adv-x="682" />
<glyph unicode=" "  horiz-adv-x="512" />
<glyph unicode="&#x09;" horiz-adv-x="512" />
<glyph unicode="&#xa0;" horiz-adv-x="512" />
<glyph unicode="!" horiz-adv-x="516" d="M100 141q0 66 46 112t112 46q64 0 110 -46.5t46 -111.5t-46 -110t-112 -45q-65 0 -110.5 45.5t-45.5 109.5zM123 1331h270l-28 -878h-218z" />
<glyph unicode="&#x22;" d="M219 1366h246l-47 -549h-152zM557 1366h246l-47 -549h-152z" />
<glyph unicode="#" horiz-adv-x="1228" d="M12 408l27 170h235l37 237h-233l26 170h234l61 381h197l-59 -381h247l60 381h200l-61 -381h240l-27 -170h-240l-36 -237h239l-26 -170h-242l-64 -408h-198l65 408h-250l-63 -408h-199l64 408h-234zM471 578h248l39 237h-248z" />
<glyph unicode="$" horiz-adv-x="1167" d="M72 428v27h245q4 -115 53 -176t152 -84v399q-190 61 -248 96q-170 95 -170 305q0 169 110 273t308 123v153h125v-158q184 -20 296 -135t106 -278h-242q-14 152 -160 192v-346q182 -59 250 -96q201 -115 201 -332q0 -175 -122.5 -288t-328.5 -128v-182h-125v182 q-172 17 -282 95q-82 60 -125 152t-43 206zM354 1016q0 -59 36.5 -93t131.5 -63v307q-168 -34 -168 -151zM647 190q92 9 143.5 56t51.5 121q0 86 -74 135q-28 20 -121 51v-363z" />
<glyph unicode="%" horiz-adv-x="1460" d="M66 1047q0 138 83.5 233.5t204.5 95.5t205 -95.5t84 -233.5q0 -139 -84 -234.5t-207 -95.5q-120 0 -203 96.5t-83 233.5zM225 1047q0 -86 35.5 -138.5t93.5 -52.5t93.5 52.5t35.5 138.5q0 85 -35 137.5t-92 52.5q-60 0 -95.5 -52t-35.5 -138zM231 0l793 1366h201 l-793 -1366h-201zM817 319q0 138 83.5 234t203.5 96q121 0 205 -96t84 -234q0 -139 -84 -234t-207 -95q-118 0 -201.5 96t-83.5 233zM977 319q0 -86 35 -138t94 -52q57 0 92 52t35 138q0 85 -35 138t-92 53q-58 0 -93.5 -52.5t-35.5 -138.5z" />
<glyph unicode="&#x26;" horiz-adv-x="1187" d="M55 373q0 86 34 157t110 144q78 73 102 94q-88 114 -113.5 167t-25.5 122q0 126 94 206t240 80q141 0 229 -79.5t88 -208.5q0 -92 -43 -162.5t-158 -167.5l226 -307q23 45 31 82.5t8 107.5q0 18 -3 74h199v-72q0 -125 -25 -213t-83 -164l176 -233h-260l-58 90 q-68 -60 -141.5 -86.5t-177.5 -26.5q-198 0 -323.5 111t-125.5 285zM285 358q0 -82 60.5 -130t162.5 -48q114 0 188 68l-258 340q-85 -73 -119 -124t-34 -106zM389 1059q0 -40 19 -78t75 -109q66 56 95.5 100.5t29.5 90.5q0 43 -29.5 69.5t-78.5 26.5q-47 0 -79 -28.5 t-32 -71.5z" />
<glyph unicode="'" horiz-adv-x="512" d="M133 1366h246l-47 -549h-152z" />
<glyph unicode="(" horiz-adv-x="626" d="M121 483q0 267 63.5 496t184.5 397h190q-104 -157 -159.5 -384t-55.5 -498q0 -576 215 -904h-190q-248 344 -248 893z" />
<glyph unicode=")" horiz-adv-x="626" d="M66 -410q215 328 215 883q0 581 -215 903h190q121 -167 184.5 -394.5t63.5 -496.5q0 -544 -248 -895h-190z" />
<glyph unicode="*" d="M193 1059l32 104l232 -73v241h110v-241l232 73l32 -104l-229 -76l141 -197l-88 -65l-143 197l-141 -197l-90 65l141 197z" />
<glyph unicode="+" horiz-adv-x="1167" d="M98 586v192h387v402h199v-402h387v-192h-387v-402h-199v402h-387z" />
<glyph unicode="," horiz-adv-x="514" d="M47 -465q78 106 128.5 236.5t51.5 234.5q-149 18 -149 139q0 64 47 109t113 45q77 0 122.5 -59.5t45.5 -159.5q0 -120 -52.5 -245t-175.5 -300h-131z" />
<glyph unicode="-" horiz-adv-x="534" d="M0 426v182h535v-182h-535z" />
<glyph unicode="." horiz-adv-x="514" d="M100 141q0 66 46 112t112 46q64 0 110 -46.5t46 -111.5t-46 -110t-112 -45q-65 0 -110.5 45.5t-45.5 109.5z" />
<glyph unicode="/" horiz-adv-x="1140" d="M43 -397l864 1763h191l-865 -1763h-190z" />
<glyph unicode="0" horiz-adv-x="1167" d="M98 682q0 317 130.5 499.5t357.5 182.5t356 -183.5t129 -508.5q0 -324 -129 -508t-356 -184q-232 0 -360 184.5t-128 517.5zM354 678q0 -234 60 -361t172 -127q91 0 143 80q86 141 86 402q0 268 -86 399q-51 82 -143 82q-95 0 -146 -82q-86 -134 -86 -393z" />
<glyph unicode="1" horiz-adv-x="1167" d="M338 956v140q137 3 213.5 61.5t101.5 179.5h174v-1337h-256v956h-233z" />
<glyph unicode="2" horiz-adv-x="1167" d="M152 0v205l405 467q108 128 149.5 199t41.5 128q0 62 -46 102t-118 40q-83 0 -134.5 -48.5t-62.5 -136.5h-213q-1 187 113 297.5t309 110.5q187 0 299.5 -97.5t112.5 -260.5q0 -92 -40.5 -173.5t-160.5 -230.5q-163 -200 -326 -369h535v-233h-864z" />
<glyph unicode="3" horiz-adv-x="1167" d="M104 399h230q2 -95 60.5 -147.5t164.5 -52.5q97 0 153 52t56 144q0 70 -42 118t-116 62q-83 13 -211 13v207q20 -2 50 -2q135 0 202 34q43 23 68.5 66t25.5 94q0 69 -47.5 113.5t-122.5 44.5q-80 0 -128 -42.5t-60 -125.5h-217q6 183 120.5 285t313.5 102 q181 0 289 -96.5t108 -259.5q0 -111 -52.5 -183.5t-164.5 -115.5q120 -34 178 -111t58 -203q0 -185 -126.5 -300t-328.5 -115q-217 0 -339 110.5t-122 308.5z" />
<glyph unicode="4" horiz-adv-x="1167" d="M57 276v203l510 858h293v-858h240v-203h-234v-292h-258v292h-551zM295 479h328v580z" />
<glyph unicode="5" horiz-adv-x="1167" d="M125 379h240q28 -176 196 -176q95 0 153 69.5t58 184.5q0 109 -54 175t-143 66q-60 0 -108 -25.5t-98 -82.5l-217 33l133 708h669l-14 -227h-471l-53 -258q55 31 100.5 44t106.5 13q186 0 301.5 -121t115.5 -315q0 -214 -131.5 -350.5t-337.5 -136.5q-195 0 -314.5 107 t-131.5 292z" />
<glyph unicode="6" horiz-adv-x="1167" d="M119 475q0 236 172 498q60 90 108 149.5t201 229.5h277q-139 -173 -205.5 -262.5t-122.5 -176.5q72 7 88 7q186 0 300 -124t114 -327q0 -214 -128.5 -351.5t-328.5 -137.5q-210 0 -342.5 138t-132.5 357zM375 461q0 -117 57.5 -190.5t149.5 -73.5q97 0 155 72t58 192 q0 117 -58.5 189.5t-152.5 72.5t-151.5 -72.5t-57.5 -189.5z" />
<glyph unicode="7" horiz-adv-x="1167" d="M182 0l604 1087h-598v244h906v-194l-631 -1137h-281z" />
<glyph unicode="8" horiz-adv-x="1167" d="M117 401q0 197 176 301q-150 93 -150 269q0 168 127 280.5t316 112.5t314.5 -112t125.5 -281q0 -177 -149 -269q176 -101 176 -301q0 -181 -133 -301t-334 -120q-203 0 -336 119t-133 302zM373 389q0 -90 59 -147.5t152 -57.5q94 0 153.5 57t59.5 148t-59.5 149 t-151.5 58q-95 0 -154 -57.5t-59 -149.5zM399 979q0 -78 52 -128t135 -50t134.5 50t51.5 128q0 80 -51 130t-133 50q-85 0 -137 -49t-52 -131z" />
<glyph unicode="9" horiz-adv-x="1167" d="M119 866q0 218 130.5 358t334.5 140q205 0 336 -140t131 -360q0 -241 -174 -504q-58 -88 -109.5 -150t-202.5 -230h-276q227 282 329 444q-47 -8 -88 -8q-182 0 -296.5 125.5t-114.5 324.5zM375 879q0 -120 58 -193.5t153 -73.5q94 0 151.5 73.5t57.5 193.5t-57.5 194 t-149.5 74q-98 0 -155.5 -72.5t-57.5 -195.5z" />
<glyph unicode=":" horiz-adv-x="514" d="M100 141q0 66 46 112t112 46q64 0 110 -46.5t46 -111.5t-46 -110t-112 -45q-65 0 -110.5 45.5t-45.5 109.5zM100 819q0 66 46 112t112 46q64 0 110 -46.5t46 -109.5q0 -66 -46 -111.5t-112 -45.5q-65 0 -110.5 45.5t-45.5 109.5z" />
<glyph unicode=";" horiz-adv-x="514" d="M47 -465q78 106 128.5 236.5t51.5 234.5q-149 18 -149 139q0 64 47 109t113 45q77 0 122.5 -59.5t45.5 -159.5q0 -120 -52.5 -245t-175.5 -300h-131zM84 819q0 66 46 112t112 46q64 0 109.5 -46.5t45.5 -109.5q0 -66 -45 -111.5t-110 -45.5q-66 0 -112 45t-46 110z" />
<glyph unicode="&#x3c;" d="M68 590v213l886 448v-252l-620 -303l620 -305v-250z" />
<glyph unicode="=" horiz-adv-x="1167" d="M98 416v192h973v-192h-973zM98 758v192h973v-192h-973z" />
<glyph unicode="&#x3e;" d="M68 141v250l620 305l-620 305v248l886 -448v-213z" />
<glyph unicode="?" horiz-adv-x="854" d="M104 973q3 99 20 158.5t56 105.5q106 121 301 121q163 0 255.5 -82.5t92.5 -228.5q0 -85 -30 -142.5t-133 -171.5q-79 -87 -96 -123t-17 -118v-48h-234q0 66 0.5 100.5t6 73.5t12 58t24.5 48.5t36.5 51.5t54.5 62q72 78 92 111.5t20 76.5q0 51 -32.5 82t-86.5 31 q-66 0 -103 -43t-40 -123h-199zM283 141q0 66 45.5 112t111.5 46q64 0 110 -46.5t46 -111.5q0 -64 -45.5 -109.5t-110.5 -45.5q-66 0 -111.5 45t-45.5 110z" />
<glyph unicode="@" horiz-adv-x="1501" d="M63 670q0 152 55 286.5t150.5 230t229.5 151t286 55.5q187 0 337 -78.5t234.5 -217.5t84.5 -313q0 -126 -47.5 -240t-126.5 -182.5t-166 -68.5q-116 0 -158 131q-50 -68 -108 -99.5t-136 -31.5q-134 0 -218.5 91.5t-84.5 236.5q0 166 107.5 288.5t253.5 122.5 q137 0 202 -106l17 84h176l-78 -398q-14 -77 -14 -94q0 -38 14 -60t37 -22q64 0 120 110t56 238q0 204 -137.5 329.5t-360.5 125.5q-240 0 -393 -160q-162 -167 -162 -411q0 -116 39.5 -218t112.5 -178q77 -75 180.5 -110t249.5 -35q176 0 363 66l39 -156q-186 -64 -406 -64 q-334 0 -532 183q-103 95 -159.5 230t-56.5 284zM594 621q0 -75 38.5 -118.5t104.5 -43.5q75 0 125.5 68t50.5 169q0 75 -34 117.5t-95 42.5q-78 0 -134 -69t-56 -166z" />
<glyph unicode="A" horiz-adv-x="1232" d="M20 0l461 1366h267l464 -1366h-272l-84 285h-481l-86 -285h-269zM440 508h351l-177 557z" />
<glyph unicode="B" horiz-adv-x="1204" d="M164 0v1366h366q125 0 195 -7.5t125 -27.5q100 -34 156.5 -115.5t56.5 -193.5q0 -114 -53.5 -183t-171.5 -106q299 -67 299 -340q0 -126 -69.5 -223.5t-184.5 -134.5q-69 -22 -143.5 -28.5t-252.5 -6.5h-323zM422 213h119q105 0 153.5 6t83.5 21q43 19 66.5 63.5 t23.5 106.5q0 132 -102 174q-65 24 -219 24h-125v-395zM422 815h113q127 0 186 23q40 17 63 56t23 91q0 49 -22 87.5t-60 55.5q-57 25 -205 25h-98v-338z" />
<glyph unicode="C" horiz-adv-x="1226" d="M74 678q0 374 217 573q161 142 385 142q218 0 343 -122t138 -349h-227q-19 118 -84.5 180.5t-169.5 62.5q-152 0 -241 -130.5t-89 -354.5t89 -352.5t243 -128.5q238 0 262 307h234q-12 -264 -134.5 -398.5t-351.5 -134.5q-244 0 -414 156q-200 191 -200 549z" />
<glyph unicode="D" horiz-adv-x="1323" d="M164 0v1366h334q286 0 426 -70q152 -76 238.5 -239.5t86.5 -372.5q0 -200 -79 -362t-214 -238q-89 -51 -186.5 -67.5t-312.5 -16.5h-293zM426 223h121q114 0 175 13.5t112 50.5q69 51 108 157.5t39 241.5t-40.5 236t-115.5 155q-59 41 -122.5 53.5t-219.5 12.5h-57v-920z " />
<glyph unicode="E" horiz-adv-x="1099" d="M164 0v1366h858v-223h-596v-324h543v-223h-543v-373h618v-223h-880z" />
<glyph unicode="F" horiz-adv-x="1060" d="M164 0v1366h858v-223h-596v-324h543v-223h-543v-596h-262z" />
<glyph unicode="G" horiz-adv-x="1312" d="M74 682q0 321 167 516t443 195q127 0 232 -46t171 -130q47 -59 70 -126t27 -165h-226q-34 239 -270 239q-161 0 -251.5 -128t-90.5 -357t93 -354t263 -125q71 0 149 24.5t136 65.5v219h-272v195h489v-568q-233 -164 -499 -164q-292 0 -461.5 191t-169.5 518z" />
<glyph unicode="H" horiz-adv-x="1394" d="M164 0v1366h262v-545h543v545h262v-1366h-262v604h-543v-604h-262z" />
<glyph unicode="I" horiz-adv-x="589" d="M164 0v1366h262v-1366h-262z" />
<glyph unicode="J" horiz-adv-x="686" d="M-8 -53h31h14q169 3 207 61q15 23 18.5 66.5t3.5 197.5v1094h262v-1087q0 -189 -9 -261t-40 -129q-47 -85 -145.5 -124t-263.5 -39q-45 0 -78 2v219z" />
<glyph unicode="K" horiz-adv-x="1275" d="M164 0v1366h262v-1366h-262zM430 725l500 641h303l-510 -633l543 -733h-334z" />
<glyph unicode="L" horiz-adv-x="1054" d="M164 0v1366h268v-1143h592v-223h-860z" />
<glyph unicode="M" horiz-adv-x="1650" d="M164 0v1366h366l295 -1085l299 1085h363v-1366h-238v1065l-291 -1065h-270l-287 1065v-1065h-237z" />
<glyph unicode="N" horiz-adv-x="1411" d="M164 0v1366h280l553 -963v963h250v-1366h-264l-569 963v-963h-250z" />
<glyph unicode="O" horiz-adv-x="1378" d="M74 694q0 164 51 304t145 231q172 164 420 164q280 0 448.5 -194t168.5 -515q0 -357 -199 -547q-80 -78 -188 -121t-228 -43q-253 0 -422 164q-196 190 -196 557zM346 690q0 -232 90.5 -361.5t253.5 -129.5q161 0 252.5 129t91.5 356q0 226 -91.5 354.5t-252.5 128.5 q-160 0 -252 -128t-92 -349z" />
<glyph unicode="P" horiz-adv-x="1157" d="M164 0v1366h319q151 0 234.5 -9t152.5 -32q118 -38 186 -144t68 -249q0 -146 -72 -252t-194 -141q-113 -29 -350 -29h-82v-510h-262zM426 733h84q111 0 154.5 4.5t83.5 18.5q51 19 79.5 66t28.5 112q0 61 -24.5 106.5t-67.5 69.5q-38 19 -89.5 26t-152.5 7h-96v-410z" />
<glyph unicode="Q" horiz-adv-x="1419" d="M74 684q0 321 168 515t448 194q278 0 447.5 -194t169.5 -513q0 -194 -70 -364l283 -322h-303l-113 131q-175 -158 -414 -158q-280 0 -448 194t-168 517zM346 690q0 -232 90.5 -361.5t253.5 -129.5q161 0 252.5 129t91.5 356q0 226 -91.5 354.5t-252.5 128.5 q-160 0 -252 -128t-92 -349z" />
<glyph unicode="R" horiz-adv-x="1208" d="M164 0v1366h340q180 0 268.5 -14t159.5 -52q92 -49 143 -142t51 -212q0 -271 -241 -379l313 -567h-305l-279 522h-188v-522h-262zM426 745h94q96 0 140 4.5t83 18.5q54 20 84.5 68t30.5 112q0 109 -88 160q-39 23 -86 29t-182 6h-76v-398z" />
<glyph unicode="S" horiz-adv-x="1157" d="M66 465h253q24 -264 281 -264q97 0 157 40t60 105q0 79 -94 131q-45 24 -236 103q-117 50 -180.5 87t-99.5 76q-96 101 -96 248q0 177 130.5 289.5t336.5 112.5q128 0 231 -47.5t164 -135.5q36 -50 53 -105.5t21 -139.5h-252q-7 95 -66.5 147.5t-157.5 52.5 q-85 0 -141.5 -42t-56.5 -105q0 -67 69 -105q36 -18 226 -94q175 -71 227.5 -99t95.5 -73q94 -94 94 -252q0 -195 -131.5 -308.5t-355.5 -113.5q-252 0 -387.5 125.5t-144.5 366.5z" />
<glyph unicode="T" horiz-adv-x="1030" d="M25 1143v223h983v-223h-361v-1143h-262v1143h-360z" />
<glyph unicode="U" horiz-adv-x="1382" d="M150 578v788h262v-784q0 -99 4.5 -144.5t17.5 -83.5q26 -74 92.5 -113.5t163.5 -39.5q106 0 173.5 46t90.5 134q15 56 15 201v784h262v-788q0 -148 -10.5 -217.5t-42.5 -133.5q-58 -121 -186.5 -187.5t-301.5 -66.5q-172 0 -300.5 66.5t-186.5 187.5q-32 64 -42.5 133.5 t-10.5 217.5z" />
<glyph unicode="V" horiz-adv-x="1247" d="M14 1366h281l328 -1067l329 1067h275l-471 -1366h-275z" />
<glyph unicode="W" horiz-adv-x="1777" d="M18 1366h246l260 -1067l254 1067h226l253 -1067l265 1067h239l-352 -1366h-297l-225 889l-221 -889h-297z" />
<glyph unicode="X" horiz-adv-x="1196" d="M20 0l426 711l-391 655h299l246 -424l252 424h299l-399 -655l424 -711h-299l-277 473l-281 -473h-299z" />
<glyph unicode="Y" horiz-adv-x="1150" d="M0 1366h293l287 -545l282 545h289l-444 -827v-539h-263v539z" />
<glyph unicode="Z" horiz-adv-x="1026" d="M47 0v205l625 942h-563v219h878v-184l-629 -959h609v-223h-920z" />
<glyph unicode="[" horiz-adv-x="626" d="M154 -397v1763h409v-199h-194v-1364h194v-200h-409z" />
<glyph unicode="\" horiz-adv-x="1140" d="M43 1366h188l867 -1763h-191z" />
<glyph unicode="]" horiz-adv-x="626" d="M63 -199h195v1364h-195v201h410v-1763h-410v198z" />
<glyph unicode="^" d="M14 692l332 680h332l332 -680h-265l-233 479l-233 -479h-265z" />
<glyph unicode="_" d="M0 -98h1024v-228h-1024v228z" />
<glyph unicode="`" d="M127 1432h311l260 -334h-190z" />
<glyph unicode="a" horiz-adv-x="1048" d="M82 256q0 101 57 176t164 115q64 25 113 36t254 48v16q0 79 -34 113.5t-114 34.5q-145 0 -166 -113h-239q9 79 33.5 129.5t72.5 89.5q115 92 318 92q126 0 212.5 -38t120.5 -107q22 -43 30.5 -95.5t8.5 -144.5v-391q0 -87 7 -132.5t26 -84.5h-229q-12 47 -12 111 q-79 -131 -269 -131q-167 0 -260.5 73t-93.5 203zM340 289q0 -51 41.5 -84t105.5 -33q57 0 100.5 24t63.5 66q19 49 19 146v55q-124 -15 -181.5 -29t-89.5 -37q-59 -43 -59 -108z" />
<glyph unicode="b" horiz-adv-x="1124" d="M133 0q6 63 6 256v1118h252v-524q58 76 120.5 109.5t145.5 33.5q172 0 284 -143t112 -363q0 -223 -119 -365t-305 -142q-182 0 -260 151q-4 -71 -19 -131h-217zM391 483q0 -135 53.5 -214t145.5 -79q94 0 149.5 82t55.5 220q0 135 -53 212.5t-144 77.5q-97 0 -152 -79 t-55 -220z" />
<glyph unicode="c" horiz-adv-x="1017" d="M68 485q0 232 129.5 373t341.5 141q173 0 276.5 -89.5t126.5 -258.5h-248q-21 146 -155 146q-97 0 -155 -85.5t-58 -226.5q0 -146 55.5 -227.5t153.5 -81.5q149 0 170 170h243q-9 -167 -122.5 -270t-290.5 -103q-209 0 -338 141.5t-129 370.5z" />
<glyph unicode="d" horiz-adv-x="1122" d="M68 477q0 226 115 371t294 145q84 0 141 -29t111 -98v508h252v-1067q0 -220 18 -307h-235q-8 55 -8 86q0 24 2 49q-47 -83 -112.5 -119t-164.5 -36q-185 0 -299 137t-114 360zM324 477q0 -134 53 -210.5t147 -76.5q97 0 153 80t56 217q0 138 -52.5 216.5t-145.5 78.5 q-100 0 -155.5 -80t-55.5 -225z" />
<glyph unicode="e" horiz-adv-x="1054" d="M68 475q0 236 129.5 380t343.5 144q206 0 325 -140.5t119 -383.5v-49h-666q6 -120 68 -185t168 -65q139 0 188 109l224 -11q-32 -139 -144.5 -220t-273.5 -81q-221 0 -351 136t-130 366zM326 610h405q-15 99 -62 147t-130 48q-164 0 -213 -195z" />
<glyph unicode="f" horiz-adv-x="671" d="M33 776v197h129v61q0 99 12 157t41 101q74 115 248 115q107 0 223 -45v-203q-105 31 -166 31q-64 0 -85 -38.5t-21 -154.5v-24h231v-197h-231v-776h-252v776h-129z" />
<glyph unicode="g" horiz-adv-x="1085" d="M41 -125q0 83 47 137.5t150 89.5q-59 23 -84 50t-25 67q0 49 39 84t133 72q-86 43 -126 109.5t-40 166.5q0 157 110 249.5t296 92.5q82 0 186 -26l322 6v-180h-199q51 -76 51 -175q0 -86 -38.5 -148.5t-112.5 -94.5q-50 -21 -86.5 -27.5t-198.5 -21.5q-43 -3 -69.5 -19 t-26.5 -39q0 -28 31.5 -37t181.5 -24q123 -10 189.5 -24.5t111.5 -39.5q60 -31 93.5 -91.5t33.5 -137.5q0 -155 -127.5 -240.5t-356.5 -85.5q-224 0 -354.5 77.5t-130.5 209.5zM256 -104q0 -59 71.5 -92t200.5 -33q116 0 178 31t62 89q0 60 -72 93.5t-200 33.5 q-114 0 -177 -32t-63 -90zM352 653q0 -65 46 -104t122 -39q77 0 123.5 39.5t46.5 103.5q0 67 -46 108.5t-120 41.5q-78 0 -125 -40.5t-47 -109.5z" />
<glyph unicode="h" horiz-adv-x="1136" d="M141 0v1374h252v-508q115 127 281 127q89 0 164.5 -36.5t115.5 -98.5q30 -48 40 -107.5t10 -189.5v-561h-252v506q0 129 -25 180q-42 86 -141 86q-52 0 -96.5 -27.5t-69.5 -74.5q-27 -58 -27 -172v-498h-252z" />
<glyph unicode="i" horiz-adv-x="534" d="M121 1243q0 67 41.5 108.5t109.5 41.5q63 0 102.5 -40.5t39.5 -105.5q0 -67 -40 -107t-106 -40q-68 0 -107.5 38.5t-39.5 104.5zM141 0v973h252v-973h-252z" />
<glyph unicode="j" horiz-adv-x="557" d="M-82 -160h31q89 0 137.5 21.5t67.5 68.5q12 28 14 54t2 153v836h252v-834q0 -155 -12 -222t-52 -128q-56 -88 -147 -127t-240 -39q-30 0 -53 2v215zM150 1243q0 68 41 109t110 41q64 0 102.5 -40t38.5 -106q0 -67 -39.5 -107t-105.5 -40q-68 0 -107.5 38.5t-39.5 104.5z " />
<glyph unicode="k" horiz-adv-x="1097" d="M141 0v1374h252v-1374h-252zM397 518l357 455h303l-365 -451l398 -522h-338z" />
<glyph unicode="l" horiz-adv-x="534" d="M141 0v1374h252v-1374h-252z" />
<glyph unicode="m" horiz-adv-x="1710" d="M115 973h243q21 -53 21 -111v-18q57 77 129 113t168 36q100 0 168 -38t112 -119q64 83 139 120t177 37q100 0 170 -37.5t102 -107.5q23 -47 28 -90.5t5 -190.5v-567h-252v561q0 112 -25 152q-38 59 -133 59q-92 0 -137 -54.5t-45 -166.5v-551h-252v541q0 130 -20 166 q-36 65 -135 65q-63 0 -107 -27.5t-63 -78.5q-15 -39 -15 -125v-541h-252v743q0 104 -4.5 145t-21.5 85z" />
<glyph unicode="n" horiz-adv-x="1122" d="M111 973h243q21 -47 21 -125q109 145 289 145q91 0 165.5 -37.5t112.5 -103.5q28 -50 36.5 -105t8.5 -186v-561h-252v506q0 133 -22 184q-39 82 -135 82q-52 0 -95 -27t-65 -73q-25 -54 -25 -174v-498h-252v625q0 179 -4 228.5t-26 119.5z" />
<glyph unicode="o" horiz-adv-x="1097" d="M68 494q0 218 137 361.5t344 143.5q209 0 344 -145t135 -369q0 -223 -135 -367.5t-344 -144.5q-213 0 -347 145t-134 376zM326 489q0 -141 61 -227t162 -86q98 0 159.5 86.5t61.5 224.5q0 137 -61.5 223.5t-159.5 86.5t-160.5 -86.5t-62.5 -221.5z" />
<glyph unicode="p" horiz-adv-x="1122" d="M123 973h235q14 -41 17 -115q53 71 116 103t152 32q184 0 298 -138t114 -361q0 -224 -113.5 -369t-290.5 -145q-81 0 -141 29t-117 95v-507h-252v1067q0 222 -18 309zM389 481q0 -133 57 -212t152 -79q94 0 147.5 79t53.5 220q0 137 -53.5 215t-147.5 78q-97 0 -153 -81 t-56 -220z" />
<glyph unicode="q" horiz-adv-x="1122" d="M68 481q0 229 115.5 370.5t301.5 141.5q181 0 263 -135q3 79 16 115h235q-18 -90 -18 -309v-1067h-252v505q-52 -67 -107 -94.5t-135 -27.5q-186 0 -302.5 139.5t-116.5 361.5zM324 487q0 -137 56 -217t152 -80q95 0 148 77.5t53 217.5q0 135 -56 216t-151 81 q-94 0 -148 -79t-54 -216z" />
<glyph unicode="r" horiz-adv-x="772" d="M127 973h240q16 -69 16 -152q0 -28 -2 -51q58 118 124.5 170.5t156.5 52.5q26 0 75 -12v-256q-71 47 -151 47q-100 0 -147.5 -78t-47.5 -241v-453h-252v674q0 100 -2 172q0 61 -10 127z" />
<glyph unicode="s" horiz-adv-x="993" d="M78 326h237q6 -86 50 -124t135 -38q71 0 112 28t41 76q0 28 -14.5 45.5t-50.5 32.5q-37 17 -205 66q-150 47 -201 98q-67 67 -67 176q0 141 107 228t282 87q178 0 281 -84.5t114 -238.5h-244q-9 69 -47 102t-108 33q-58 0 -96.5 -28.5t-38.5 -71.5q0 -49 41 -70 q22 -14 54 -25t142 -43q108 -32 161.5 -58.5t84.5 -61.5q57 -66 57 -168q0 -148 -104 -231t-291 -83q-213 0 -322.5 89.5t-109.5 263.5z" />
<glyph unicode="t" horiz-adv-x="731" d="M47 776v197h160l6 280h244l-4 -280h198v-197h-202l-7 -375q-2 -49 -2 -67q0 -76 22 -104.5t79 -28.5q68 0 145 32v-208q-113 -45 -223 -45q-169 0 -240 118q-23 37 -32 80.5t-9 122.5l2 96l15 379h-152z" />
<glyph unicode="u" horiz-adv-x="1136" d="M133 406v567h252v-553q0 -115 35 -162q42 -57 131 -57q192 0 192 252v520h252v-672q0 -161 3 -199t22 -102h-238q-17 38 -20 113q-57 -72 -120 -102.5t-153 -30.5q-97 0 -177 39.5t-124 109.5q-55 82 -55 277z" />
<glyph unicode="v" horiz-adv-x="1026" d="M23 973h266l225 -699l225 699h262l-352 -979h-280z" />
<glyph unicode="w" horiz-adv-x="1533" d="M27 973h254l180 -686l203 686h202l201 -686l184 686h252l-291 -979h-270l-182 584l-178 -584h-271z" />
<glyph unicode="x" horiz-adv-x="1026" d="M2 0l358 518l-309 455h301l160 -273l166 273h299l-309 -455l356 -518h-307l-205 322l-205 -322h-305z" />
<glyph unicode="y" horiz-adv-x="1021" d="M33 973h266l217 -742l225 742h263l-330 -946q-48 -135 -63 -169.5t-48 -86.5q-60 -98 -155 -140.5t-256 -42.5q-54 0 -95 2v220h32q88 0 139 10q59 11 92.5 42t56.5 93z" />
<glyph unicode="z" horiz-adv-x="868" d="M47 0v195l461 569h-410v209h713v-191l-467 -573h475v-209h-772z" />
<glyph unicode="{" horiz-adv-x="626" d="M92 403v160q63 13 88 53t25 125v318q0 147 43 215q38 57 101.5 80.5t174.5 23.5q23 0 97 -4v-194l-41 2q-67 0 -99.5 -10t-44.5 -35q-8 -18 -10 -39.5t-2 -87.5v-256q0 -114 -25 -167.5t-100 -103.5q76 -50 100.5 -102.5t24.5 -165.5v-258q0 -70 2.5 -92t13.5 -41 q22 -37 140 -37h41v-195q-39 -2 -97 -2q-120 0 -187 29.5t-101 95.5q-31 61 -31 193v317q0 85 -26 125.5t-87 52.5z" />
<glyph unicode="|" d="M385 -342v1708h252v-1708h-252z" />
<glyph unicode="}" horiz-adv-x="626" d="M6 -213h41q67 0 99 10t44 35q9 17 11 36.5t2 88.5v258q0 112 25 165t100 103q-75 50 -100 103.5t-25 167.5v256q0 71 -3 93t-14 42q-22 37 -139 37l-41 -2v194q74 4 96 4q120 0 187 -29.5t102 -97.5q31 -61 31 -192v-318q0 -85 25 -125t88 -53v-160q-61 -12 -87 -52.5 t-26 -125.5v-317q0 -81 -9.5 -128.5t-33.5 -84.5q-38 -57 -102 -81t-175 -24q-57 0 -96 2v195z" />
<glyph unicode="~" horiz-adv-x="1366" d="M184 494l17 32q36 84 62.5 123t66.5 70q65 53 162 53q73 0 213 -55q91 -33 120.5 -41t59.5 -8q51 0 82 22.5t69 85.5l144 -84q-42 -91 -73 -134.5t-75 -74.5q-80 -59 -176 -59q-53 0 -205 55q-94 34 -121 41.5t-55 7.5q-49 0 -81 -26.5t-70 -100.5z" />
<glyph unicode="&#xa1;" horiz-adv-x="516" d="M100 821q0 65 46 110.5t112 45.5q64 0 110 -45.5t46 -110.5q0 -66 -46 -111.5t-112 -45.5q-64 0 -110 46t-46 111zM123 -373l29 879h215l26 -879h-270z" />
<glyph unicode="&#xa2;" horiz-adv-x="1167" d="M143 709q0 130 44.5 238t125.5 175q92 77 236 99v149h125v-151q147 -19 237 -107t113 -235h-254q-8 53 -34.5 89t-67.5 48v-598q46 14 76 56t36 103h244q-5 -143 -106.5 -248t-249.5 -118v-186h-125v188q-190 32 -295 163t-105 335zM401 705q0 -238 148 -289v596 q-148 -71 -148 -307z" />
<glyph unicode="&#xa3;" horiz-adv-x="1167" d="M61 -20q138 147 209 641h-164v182h199l2 12l23 117q19 100 54 190.5t75 141.5q94 122 291 122q172 0 258.5 -86t99.5 -272h-219q-9 74 -41 108.5t-92 34.5q-82 0 -119 -69.5t-68 -276.5l-4 -22h318v-180h-353q-19 -141 -51 -238t-90 -184q123 37 223 37q25 0 160 -13 l43 -2q49 0 67 36t23 138h201q2 -23 2 -49q0 -171 -71.5 -266.5t-200.5 -95.5q-52 0 -140 10q-181 20 -309 20q-156 0 -326 -36z" />
<glyph unicode="&#xa4;" horiz-adv-x="1366" d="M47 1264l137 137l211 -211q134 92 289 92q147 0 281 -90l211 207l135 -137l-207 -207q51 -78 72.5 -144t21.5 -141q0 -144 -90 -281l209 -210l-135 -138l-209 209q-137 -94 -291 -94q-75 0 -141 21t-148 71l-207 -207l-137 138l209 208q-92 131 -92 283q0 146 92 283z M397 768q0 -117 84 -201t201 -84q118 0 201.5 84t83.5 203q0 117 -83 201t-198 84q-122 0 -205.5 -83t-83.5 -204z" />
<glyph unicode="&#xa5;" horiz-adv-x="1167" d="M29 1366h293l262 -547l262 547h291l-230 -451h176v-157h-256l-71 -137h327v-158h-370v-463h-262v463h-369v158h326l-70 137h-256v157h176z" />
<glyph unicode="&#xa6;" d="M385 313h252v-655h-252v655zM385 659v707h252v-707h-252z" />
<glyph unicode="&#xa7;" d="M84 553q0 78 41 142.5t133 133.5q-63 57 -89 108t-26 118q0 133 105 221t262 88q105 0 188.5 -38.5t130.5 -108.5q56 -81 62 -236h-195q-13 95 -56.5 138.5t-123.5 43.5q-64 0 -104.5 -30.5t-40.5 -77.5t39 -78q23 -20 50.5 -36t168.5 -89q179 -91 227 -137 q84 -78 84 -197q0 -175 -178 -278q71 -53 103 -113t32 -143q0 -151 -102.5 -235.5t-286.5 -84.5q-196 0 -307 100t-111 277v16h205q17 -104 65.5 -148t145.5 -44q75 0 118.5 33t43.5 90q0 35 -18 60.5t-64 53.5q-23 16 -52 31t-157 78q-57 28 -118 70t-95 77 q-37 37 -58.5 89t-21.5 106zM309 569q0 -33 8.5 -55t42 -49.5t85 -56t151.5 -78.5q69 47 96 83t27 79q0 40 -21.5 70t-72.5 59q-99 60 -201 108q-63 -44 -89 -80.5t-26 -79.5z" />
<glyph unicode="&#xa8;" d="M190 1262q0 59 41 99t101 40q57 0 97 -41t40 -98t-40.5 -98.5t-98.5 -41.5q-57 0 -98.5 41.5t-41.5 98.5zM555 1262q0 59 40.5 99t100.5 40q57 0 97.5 -41t40.5 -98t-41 -98.5t-99 -41.5q-57 0 -98 41.5t-41 98.5z" />
<glyph unicode="&#xa9;" horiz-adv-x="1536" d="M59 682q0 146 56.5 278t152 227t228.5 150.5t280 55.5q141 0 270.5 -57t224 -152t150.5 -226.5t56 -273.5q0 -145 -56 -276.5t-151 -226.5t-226.5 -151.5t-275.5 -56.5q-115 0 -223.5 36t-195.5 101.5t-152.5 152.5t-101.5 195.5t-36 223.5zM186 682q0 -161 78.5 -298 t212.5 -216.5t291 -79.5q158 0 292 79.5t212 216.5t78 298q0 160 -77.5 297.5t-210 218t-286.5 80.5q-163 0 -298.5 -79t-213.5 -216t-78 -301zM418 690q0 192 104.5 310t276.5 118q141 0 225.5 -77.5t85.5 -209.5h-149q-25 144 -158 144q-94 0 -150.5 -77t-56.5 -206 t57 -204.5t152 -75.5q151 0 160 182h153q0 -151 -84 -238.5t-229 -87.5q-177 0 -282 115t-105 307z" />
<glyph unicode="&#xaa;" d="M221 561v107h570v-107h-570zM233 942q0 107 107 164q34 19 71 30t162 38l27 6v8q0 69 -90 69q-49 0 -73.5 -18.5t-30.5 -60.5h-154q6 99 75.5 151.5t194.5 52.5q154 0 207 -84q18 -27 22.5 -51.5t4.5 -97.5v-231q0 -92 22 -132h-149q-9 34 -11 60q-52 -70 -165 -70 q-103 0 -161.5 44t-58.5 122zM397 963q0 -29 24 -47.5t64 -18.5q34 0 62.5 14t40.5 37q12 24 12 84v41q-122 -26 -162.5 -48t-40.5 -62z" />
<glyph unicode="&#xab;" horiz-adv-x="1001" d="M55 475l224 504h213l-185 -504l185 -475h-213zM442 475l224 504h213l-185 -504l185 -475h-213z" />
<glyph unicode="&#xac;" d="M68 311v236h886v-547h-252v311h-634z" />
<glyph unicode="&#xad;" horiz-adv-x="534" d="M0 426v182h535v-182h-535z" />
<glyph unicode="&#xae;" horiz-adv-x="1536" d="M59 682q0 146 56.5 278t152 227t228.5 150.5t280 55.5q141 0 270.5 -57t224 -152t150.5 -226.5t56 -273.5q0 -145 -56 -276.5t-151 -226.5t-226.5 -151.5t-275.5 -56.5q-115 0 -223.5 36t-195.5 101.5t-152.5 152.5t-101.5 195.5t-36 223.5zM186 682q0 -161 78.5 -298 t212.5 -216.5t291 -79.5q158 0 292 79.5t212 216.5t78 298q0 160 -77.5 297.5t-210 218t-286.5 80.5q-163 0 -298.5 -79t-213.5 -216t-78 -301zM487 268v819h218q114 0 168 -7.5t98 -30.5q58 -31 90.5 -87.5t32.5 -127.5q0 -78 -38 -137t-110 -91l197 -338h-201l-172 310 h-111v-310h-172zM659 719h56q99 0 135 14q32 10 51 38t19 65q0 62 -52 90q-26 13 -54 16.5t-112 3.5h-43v-227z" />
<glyph unicode="&#xaf;" d="M217 1186v149h592v-149h-592z" />
<glyph unicode="&#xb0;" d="M199 1090q0 125 92 214t221 89t220 -90t91 -216q0 -128 -91 -218.5t-220 -90.5q-131 0 -222 91t-91 221zM350 1087q0 -67 47 -114t115 -47q66 0 113 46.5t47 112.5t-47.5 113t-114.5 47q-65 0 -112.5 -47t-47.5 -111z" />
<glyph unicode="&#xb1;" horiz-adv-x="1167" d="M98 0v193h973v-193h-973zM98 631v192h387v404h199v-404h387v-192h-387v-330h-199v330h-387z" />
<glyph unicode="&#xb2;" horiz-adv-x="757" d="M106 532v130q24 24 84 92q175 191 230 264t55 115q0 35 -27 57t-69 22q-52 0 -83 -28.5t-36 -81.5h-139q-2 116 69 183t195 67q118 0 188 -59t70 -158q0 -56 -24.5 -104t-100.5 -138q-111 -133 -194 -213h325v-148h-543z" />
<glyph unicode="&#xb3;" horiz-adv-x="757" d="M78 793h149q0 -55 35 -85t100 -30q60 0 93.5 28.5t33.5 79.5q0 41 -25 68t-69 35q-66 8 -135 8v129h35q180 0 180 111q0 38 -28 62t-74 24q-98 0 -113 -97h-141q3 113 73.5 174.5t196.5 61.5q117 0 184.5 -57.5t67.5 -157.5q0 -124 -125 -174q66 -20 101.5 -68.5 t35.5 -118.5q0 -110 -79 -178.5t-207 -68.5q-137 0 -213.5 67t-75.5 187z" />
<glyph unicode="&#xb4;" d="M348 1098l260 334h312l-381 -334h-191z" />
<glyph unicode="&#xb5;" d="M57 -354v1337h252v-524q0 -96 14.5 -146.5t51.5 -87.5q60 -57 141 -57q91 0 148 72q31 39 42 88t11 139v516h252v-983h-252v121q-38 -74 -87.5 -107.5t-119.5 -33.5q-65 0 -113 30t-88 96v-460h-252z" />
<glyph unicode="&#xb6;" horiz-adv-x="1345" d="M55 1006q0 101 44 181t124 124q104 55 303 55h670v-195h-147v-1361h-213v1361h-174v-1361h-216v847q-12 -2 -26 -2q-163 0 -264 97t-101 254z" />
<glyph unicode="&#xb7;" horiz-adv-x="514" d="M100 514q0 66 46 112t112 46q64 0 110 -46.5t46 -111.5t-46 -110.5t-112 -45.5q-64 0 -110 46t-46 110z" />
<glyph unicode="&#xb8;" d="M317 -332q81 -41 136 -41q44 0 72 30t28 77q0 52 -34.5 84t-90.5 32q-27 0 -63 -10l49 160h135l-29 -92q91 -19 139 -67.5t48 -123.5q0 -88 -61 -147t-152 -59t-177 59v98z" />
<glyph unicode="&#xb9;" horiz-adv-x="757" d="M156 1100v92q87 0 134 34.5t62 108.5h117v-803h-168v568h-145z" />
<glyph unicode="&#xba;" d="M215 1079q0 132 83.5 218.5t213.5 86.5q128 0 211.5 -86t83.5 -219q0 -135 -83.5 -221t-215.5 -86q-127 0 -210 86.5t-83 220.5zM227 561v107h570v-107h-570zM379 1079q0 -82 36 -132t95 -50q60 0 96.5 49.5t36.5 132.5q0 80 -36.5 130.5t-94.5 50.5q-60 0 -96.5 -50.5 t-36.5 -130.5z" />
<glyph unicode="&#xbb;" horiz-adv-x="1001" d="M123 0l184 504l-184 475h213l223 -475l-223 -504h-213zM510 0l184 504l-184 475h213l223 -475l-223 -504h-213z" />
<glyph unicode="&#xbc;" horiz-adv-x="1794" d="M156 1100v92q87 0 134 34.5t62 108.5h117v-803h-168v568h-145zM414 0l768 1331h200l-768 -1331h-200zM1085 164v125l318 514h188v-510h150v-129h-146v-174h-168v174h-342zM1243 293h193v325z" />
<glyph unicode="&#xbd;" horiz-adv-x="1794" d="M156 1100v92q87 0 134 34.5t62 108.5h117v-803h-168v568h-145zM414 0l768 1331h200l-768 -1331h-200zM1145 0v129q61 67 121 133.5t90.5 100.5t40.5 45q65 74 90.5 116.5t25.5 75.5q0 35 -27.5 57.5t-68.5 22.5q-107 0 -119 -111h-139q-2 116 69 183t195 67 q118 0 188 -59t70 -158q0 -55 -25 -103t-100 -139q-95 -117 -194 -213h326v-147h-543z" />
<glyph unicode="&#xbe;" horiz-adv-x="1794" d="M78 793h149q0 -55 35 -85t100 -30q60 0 93.5 28.5t33.5 79.5q0 41 -25 68t-69 35q-66 8 -135 8v129h35q180 0 180 111q0 38 -28 62t-74 24q-98 0 -113 -97h-141q3 113 73.5 174.5t196.5 61.5q117 0 184.5 -57.5t67.5 -157.5q0 -124 -125 -174q66 -20 101.5 -68.5 t35.5 -118.5q0 -110 -79 -178.5t-207 -68.5q-137 0 -213.5 67t-75.5 187zM412 0l770 1331h200l-770 -1331h-200zM1083 164v125l318 514h188v-510h150v-129h-146v-174h-168v174h-342zM1241 293h193v325z" />
<glyph unicode="&#xbf;" horiz-adv-x="854" d="M63 -88q0 84 30 141t134 172q61 66 81 95.5t27 58.5t7 94v43h231q0 -98 -2 -141t-17.5 -89.5t-37.5 -75t-74 -87.5q-73 -79 -93.5 -114t-20.5 -79q0 -51 32.5 -80.5t88.5 -29.5q66 0 102 42t39 124h198q-3 -102 -19.5 -161t-55.5 -104q-105 -120 -301 -120 q-163 0 -256 82.5t-93 228.5zM297 821q0 65 46 110.5t112 45.5q64 0 109.5 -45.5t45.5 -110.5q0 -66 -45.5 -111.5t-111.5 -45.5q-64 0 -110 46t-46 111z" />
<glyph unicode="&#xc0;" horiz-adv-x="1232" d="M20 0l461 1366h267l464 -1366h-272l-84 285h-481l-86 -285h-269zM139 1800h310l339 -334h-233zM440 508h351l-177 557z" />
<glyph unicode="&#xc1;" horiz-adv-x="1232" d="M20 0l461 1366h267l464 -1366h-272l-84 285h-481l-86 -285h-269zM440 508h351l-177 557zM440 1466l340 334h312l-416 -334h-236z" />
<glyph unicode="&#xc2;" horiz-adv-x="1232" d="M20 0l461 1366h267l464 -1366h-272l-84 285h-481l-86 -285h-269zM233 1489l281 289h203l282 -289h-239l-144 160l-143 -160h-240zM440 508h351l-177 557z" />
<glyph unicode="&#xc3;" horiz-adv-x="1232" d="M20 0l461 1366h267l464 -1366h-272l-84 285h-481l-86 -285h-269zM270 1530q64 217 203 217q54 0 152 -33q106 -31 137 -31q58 0 108 82l105 -26q-22 -103 -78 -165.5t-127 -62.5q-44 0 -152 31q-111 35 -139 35q-58 0 -92 -76zM440 508h351l-177 557z" />
<glyph unicode="&#xc4;" horiz-adv-x="1232" d="M20 0l461 1366h267l464 -1366h-272l-84 285h-481l-86 -285h-269zM274 1632q0 64 44.5 108t107.5 44q61 0 105 -44t44 -106q0 -63 -43.5 -107t-105.5 -44q-63 0 -107.5 43.5t-44.5 105.5zM440 508h351l-177 557zM655 1632q0 64 44.5 108t107.5 44q61 0 105 -44t44 -106 q0 -63 -43.5 -107t-105.5 -44q-63 0 -107.5 43.5t-44.5 105.5z" />
<glyph unicode="&#xc5;" horiz-adv-x="1232" d="M20 0l461 1366h267l464 -1366h-272l-84 285h-481l-86 -285h-269zM414 1649q0 86 59 145t145 59q83 0 142 -59.5t59 -144.5q0 -84 -59.5 -143.5t-143.5 -59.5q-83 0 -142.5 60t-59.5 143zM440 508h351l-177 557zM518 1649q0 -40 29 -69.5t69 -29.5q41 0 70 30t29 71 q0 40 -28.5 69t-68.5 29q-43 0 -71.5 -28.5t-28.5 -71.5z" />
<glyph unicode="&#xc6;" horiz-adv-x="1875" d="M23 0l815 1366h964v-223h-577v-328h526v-223h-526v-369h596v-223h-863v283h-487l-166 -283h-282zM602 506h356v620z" />
<glyph unicode="&#xc7;" horiz-adv-x="1226" d="M74 682q0 184 55.5 328.5t161.5 238.5q77 68 180.5 106t210.5 38q129 0 233 -51.5t164 -145.5q66 -102 78 -274h-227q-19 118 -84.5 180.5t-169.5 62.5q-152 0 -241 -130.5t-89 -354.5t89 -352.5t243 -128.5q238 0 262 307h236q-9 -252 -127.5 -388t-339.5 -145l-25 -79 q106 -22 161.5 -79t55.5 -143q0 -101 -72 -171t-178 -70q-102 0 -202 69v115q92 -49 157 -49q52 0 84.5 34.5t32.5 90.5q0 61 -41 98t-107 37q-30 0 -71 -10l51 168q-99 31 -143 51t-90 55q-248 196 -248 592z" />
<glyph unicode="&#xc8;" horiz-adv-x="1099" d="M139 1800h312l340 -334h-236zM164 0v1366h860v-223h-598v-324h543v-223h-543v-373h621v-223h-883z" />
<glyph unicode="&#xc9;" horiz-adv-x="1099" d="M164 0v1366h858v-223h-596v-324h543v-223h-543v-373h618v-223h-880zM395 1466l340 334h312l-416 -334h-236z" />
<glyph unicode="&#xca;" horiz-adv-x="1099" d="M164 0v1366h858v-223h-596v-324h543v-223h-543v-373h618v-223h-880zM211 1489l281 289h204l281 -289h-238l-145 160l-141 -160h-242z" />
<glyph unicode="&#xcb;" horiz-adv-x="1099" d="M164 0v1366h858v-223h-596v-324h543v-223h-543v-373h618v-223h-880zM252 1632q0 64 44 108t107 44q61 0 105.5 -44t44.5 -106q0 -63 -44 -107t-106 -44q-63 0 -107 43.5t-44 105.5zM635 1632q0 64 44 108t107 44q62 0 106 -44t44 -106q0 -63 -44 -107t-106 -44 q-63 0 -107 43.5t-44 105.5z" />
<glyph unicode="&#xcc;" horiz-adv-x="589" d="M-121 1800h291l285 -334h-222zM164 0v1366h262v-1366h-262z" />
<glyph unicode="&#xcd;" horiz-adv-x="589" d="M137 1466l285 334h291l-355 -334h-221zM164 0v1366h262v-1366h-262z" />
<glyph unicode="&#xce;" horiz-adv-x="589" d="M-41 1489l234 289h202l236 -289h-234l-102 166l-102 -166h-234zM164 0v1366h262v-1366h-262z" />
<glyph unicode="&#xcf;" horiz-adv-x="589" d="M-29 1630q0 60 42.5 102t103.5 42q58 0 99.5 -42.5t41.5 -101.5q0 -60 -41.5 -101.5t-101.5 -41.5t-102 41.5t-42 101.5zM164 0v1366h262v-1366h-262zM334 1630q0 60 42 102t103 42q58 0 100 -42.5t42 -101.5q0 -60 -42 -101.5t-102 -41.5t-101.5 41.5t-41.5 101.5z" />
<glyph unicode="&#xd0;" horiz-adv-x="1323" d="M41 608v205h123v553h334q153 0 252.5 -16.5t175.5 -53.5q152 -76 238.5 -239.5t86.5 -372.5q0 -200 -79 -362t-214 -238q-89 -51 -187 -67.5t-314 -16.5h-293v608h-123zM426 223h121q115 0 176.5 13.5t112.5 50.5q69 51 108 157.5t39 241.5t-40.5 236t-115.5 155 q-59 41 -122.5 53.5t-221.5 12.5h-57v-330h274v-205h-274v-385z" />
<glyph unicode="&#xd1;" horiz-adv-x="1411" d="M164 0v1366h280l553 -963v963h250v-1366h-264l-569 963v-963h-250zM373 1530q64 217 202 217q54 0 154 -33q103 -31 135 -31q58 0 111 82l104 -26q-23 -103 -79 -165.5t-126 -62.5q-46 0 -151 31q-113 35 -139 35q-58 0 -92 -76z" />
<glyph unicode="&#xd2;" horiz-adv-x="1378" d="M74 684q0 211 69 366.5t201 243.5q144 99 346 99q286 0 451.5 -190t165.5 -517q0 -334 -165.5 -523.5t-457.5 -189.5q-195 0 -340 99q-270 181 -270 612zM236 1800h311l340 -334h-236zM346 684q0 -229 89.5 -357t250.5 -128q167 0 257.5 126t90.5 361q0 228 -90.5 354.5 t-253.5 126.5q-164 0 -254 -126.5t-90 -356.5z" />
<glyph unicode="&#xd3;" horiz-adv-x="1378" d="M74 684q0 211 69 366.5t201 243.5q144 99 346 99q286 0 451.5 -190t165.5 -517q0 -334 -165.5 -523.5t-457.5 -189.5q-195 0 -340 99q-270 181 -270 612zM346 684q0 -229 89.5 -357t250.5 -128q167 0 257.5 126t90.5 361q0 228 -90.5 354.5t-253.5 126.5 q-164 0 -254 -126.5t-90 -356.5zM496 1466l340 334h311l-416 -334h-235z" />
<glyph unicode="&#xd4;" horiz-adv-x="1378" d="M74 684q0 211 69 366.5t201 243.5q144 99 346 99q286 0 451.5 -190t165.5 -517q0 -334 -165.5 -523.5t-457.5 -189.5q-195 0 -340 99q-270 181 -270 612zM307 1489l281 289h203l282 -289h-237l-146 160l-141 -160h-242zM346 684q0 -229 89.5 -357t250.5 -128 q167 0 257.5 126t90.5 361q0 228 -90.5 354.5t-253.5 126.5q-164 0 -254 -126.5t-90 -356.5z" />
<glyph unicode="&#xd5;" horiz-adv-x="1378" d="M74 684q0 211 69 366.5t201 243.5q144 99 346 99q286 0 451.5 -190t165.5 -517q0 -334 -165.5 -523.5t-457.5 -189.5q-195 0 -340 99q-270 181 -270 612zM346 684q0 -229 89.5 -357t250.5 -128q167 0 257.5 126t90.5 361q0 228 -90.5 354.5t-253.5 126.5 q-164 0 -254 -126.5t-90 -356.5zM350 1530q64 217 203 217q54 0 154 -33q103 -31 135 -31q57 0 110 82l105 -26q-23 -103 -79 -165.5t-126 -62.5q-47 0 -152 31q-113 35 -139 35q-58 0 -92 -76z" />
<glyph unicode="&#xd6;" horiz-adv-x="1378" d="M74 684q0 211 69 366.5t201 243.5q144 99 346 99q286 0 451.5 -190t165.5 -517q0 -334 -165.5 -523.5t-457.5 -189.5q-195 0 -340 99q-270 181 -270 612zM346 684q0 -229 89.5 -357t250.5 -128q167 0 257.5 126t90.5 361q0 228 -90.5 354.5t-253.5 126.5 q-164 0 -254 -126.5t-90 -356.5zM348 1632q0 64 44.5 108t107.5 44q61 0 105 -44t44 -106q0 -63 -43.5 -107t-105.5 -44q-63 0 -107.5 43.5t-44.5 105.5zM729 1632q0 64 44.5 108t107.5 44q61 0 105 -44t44 -106q0 -63 -43.5 -107t-105.5 -44q-63 0 -107.5 43.5t-44.5 105.5 z" />
<glyph unicode="&#xd7;" horiz-adv-x="1167" d="M150 383l301 299l-291 291l135 135l291 -289l293 291l137 -139l-293 -291l293 -291l-137 -135l-291 289l-299 -299z" />
<glyph unicode="&#xd8;" horiz-adv-x="1378" d="M27 -6l168 211l-15 26q-64 121 -86 211t-22 230q0 332 165 525.5t449 193.5q249 0 389 -125l86 106h185l-166 -207q12 -20 12 -24q17 -28 39 -70q32 -57 53 -163.5t21 -213.5q0 -332 -165.5 -525.5t-449.5 -193.5q-117 0 -204.5 27t-188.5 94l-86 -102h-184zM344 666 q0 -84 9 -135.5t32 -104.5l520 655q-53 51 -96 68.5t-119 17.5q-161 0 -253.5 -133.5t-92.5 -367.5zM461 285q80 -86 225 -86q163 0 254.5 134t91.5 372q0 127 -41 251z" />
<glyph unicode="&#xd9;" horiz-adv-x="1382" d="M150 578v788h262v-784q0 -99 4.5 -144.5t17.5 -83.5q26 -74 92.5 -113.5t163.5 -39.5q106 0 173.5 46t90.5 134q15 56 15 201v784h262v-788q0 -148 -10.5 -217.5t-42.5 -133.5q-58 -121 -186.5 -187.5t-301.5 -66.5q-172 0 -300.5 66.5t-186.5 187.5q-32 64 -42.5 133.5 t-10.5 217.5zM242 1800h311l340 -334h-236z" />
<glyph unicode="&#xda;" horiz-adv-x="1382" d="M150 578v788h262v-784q0 -99 4.5 -144.5t17.5 -83.5q26 -74 92.5 -113.5t163.5 -39.5q106 0 173.5 46t90.5 134q15 56 15 201v784h262v-788q0 -148 -10.5 -217.5t-42.5 -133.5q-58 -121 -186.5 -187.5t-301.5 -66.5q-172 0 -300.5 66.5t-186.5 187.5q-32 64 -42.5 133.5 t-10.5 217.5zM487 1466l342 334h310l-416 -334h-236z" />
<glyph unicode="&#xdb;" horiz-adv-x="1382" d="M150 578v788h262v-784q0 -99 4.5 -144.5t17.5 -83.5q26 -74 92.5 -113.5t163.5 -39.5q106 0 173.5 46t90.5 134q15 56 15 201v784h262v-788q0 -148 -10.5 -217.5t-42.5 -133.5q-58 -121 -186.5 -187.5t-301.5 -66.5q-172 0 -300.5 66.5t-186.5 187.5q-32 64 -42.5 133.5 t-10.5 217.5zM307 1489l281 289h203l282 -289h-237l-146 160l-143 -160h-240z" />
<glyph unicode="&#xdc;" horiz-adv-x="1382" d="M150 578v788h262v-784q0 -99 4.5 -144.5t17.5 -83.5q26 -74 92.5 -113.5t163.5 -39.5q106 0 173.5 46t90.5 134q15 56 15 201v784h262v-788q0 -148 -10.5 -217.5t-42.5 -133.5q-58 -121 -186.5 -187.5t-301.5 -66.5q-172 0 -300.5 66.5t-186.5 187.5q-32 64 -42.5 133.5 t-10.5 217.5zM348 1632q0 64 44.5 108t107.5 44q61 0 105 -44t44 -106q0 -63 -43.5 -107t-105.5 -44q-63 0 -107.5 43.5t-44.5 105.5zM729 1632q0 64 44.5 108t107.5 44q61 0 105 -44t44 -106q0 -63 -43.5 -107t-105.5 -44q-63 0 -107.5 43.5t-44.5 105.5z" />
<glyph unicode="&#xdd;" horiz-adv-x="1150" d="M0 1366h293l285 -545l284 545h289l-444 -827v-539h-263v539zM377 1466l340 334h311l-416 -334h-235z" />
<glyph unicode="&#xde;" horiz-adv-x="1157" d="M164 0v1366h262v-160h57q152 0 235 -9t152 -32q118 -40 186 -145t68 -248q0 -146 -72 -252t-194 -141q-113 -29 -350 -29h-82v-350h-262zM426 573h84q111 0 154.5 4.5t83.5 18.5q51 19 79.5 66t28.5 112q0 61 -24.5 107.5t-67.5 68.5q-38 19 -90 26t-152 7h-96v-410z" />
<glyph unicode="&#xdf;" horiz-adv-x="1114" d="M117 0v856q0 178 9 240t46 123q47 78 145.5 124t221.5 46q180 0 292.5 -95t112.5 -247q0 -201 -190 -271q69 -19 111 -41t79 -59q49 -49 76 -123.5t27 -161.5q0 -177 -102 -291t-259 -114q-93 0 -164 43v219q65 -41 125 -41q68 0 104.5 44t36.5 126q0 126 -77.5 200 t-210.5 74h-29v217h33q89 0 139.5 42t50.5 116q0 72 -43.5 116t-115.5 44q-114 0 -150 -96q-10 -29 -13 -66t-3 -139v-885h-252z" />
<glyph unicode="&#xe0;" horiz-adv-x="1048" d="M82 256q0 101 57 176t164 115q64 25 113 36t254 48v16q0 79 -34 113.5t-114 34.5q-145 0 -166 -113h-239q9 79 33.5 129.5t72.5 89.5q115 92 318 92q126 0 212.5 -38t120.5 -107q22 -43 30.5 -95.5t8.5 -144.5v-391q0 -87 7 -132.5t26 -84.5h-229q-12 47 -12 111 q-79 -131 -269 -131q-167 0 -260.5 73t-93.5 203zM125 1432h311l260 -334h-190zM340 289q0 -51 41.5 -84t105.5 -33q57 0 100.5 24t63.5 66q19 49 19 146v55q-124 -15 -181.5 -29t-89.5 -37q-59 -43 -59 -108z" />
<glyph unicode="&#xe1;" horiz-adv-x="1048" d="M82 256q0 101 57 176t164 115q64 25 113 36t254 48v16q0 79 -34 113.5t-114 34.5q-145 0 -166 -113h-239q9 79 33.5 129.5t72.5 89.5q115 92 318 92q126 0 212.5 -38t120.5 -107q22 -43 30.5 -95.5t8.5 -144.5v-391q0 -87 7 -132.5t26 -84.5h-229q-12 47 -12 111 q-79 -131 -269 -131q-167 0 -260.5 73t-93.5 203zM340 289q0 -51 41.5 -84t105.5 -33q57 0 100.5 24t63.5 66q19 49 19 146v55q-124 -15 -181.5 -29t-89.5 -37q-59 -43 -59 -108zM356 1098l260 334h312l-381 -334h-191z" />
<glyph unicode="&#xe2;" horiz-adv-x="1048" d="M82 256q0 101 57 176t164 115q64 25 113 36t254 48v16q0 79 -34 113.5t-114 34.5q-145 0 -166 -113h-239q9 79 33.5 129.5t72.5 89.5q115 92 318 92q126 0 212.5 -38t120.5 -107q22 -43 30.5 -95.5t8.5 -144.5v-391q0 -87 7 -132.5t26 -84.5h-229q-12 47 -12 111 q-79 -131 -269 -131q-167 0 -260.5 73t-93.5 203zM182 1108l248 311h203l248 -311h-228l-123 176l-118 -176h-230zM340 289q0 -51 41.5 -84t105.5 -33q57 0 100.5 24t63.5 66q19 49 19 146v55q-124 -15 -181.5 -29t-89.5 -37q-59 -43 -59 -108z" />
<glyph unicode="&#xe3;" horiz-adv-x="1048" d="M82 256q0 101 57 176t164 115q64 25 113 36t254 48v16q0 79 -34 113.5t-114 34.5q-145 0 -166 -113h-239q9 79 33.5 129.5t72.5 89.5q115 92 318 92q126 0 212.5 -38t120.5 -107q22 -43 30.5 -95.5t8.5 -144.5v-391q0 -87 7 -132.5t26 -84.5h-229q-12 47 -12 111 q-79 -131 -269 -131q-167 0 -260.5 73t-93.5 203zM213 1161q58 217 182 217q42 0 137 -32q96 -31 123 -31q52 0 99 82l94 -27q-22 -106 -71 -166.5t-113 -60.5q-40 0 -138 31q-97 34 -123 34q-58 0 -84 -75zM340 289q0 -51 41.5 -84t105.5 -33q57 0 100.5 24t63.5 66 q19 49 19 146v55q-124 -15 -181.5 -29t-89.5 -37q-59 -43 -59 -108z" />
<glyph unicode="&#xe4;" horiz-adv-x="1048" d="M82 256q0 101 57 176t164 115q64 25 113 36t254 48v16q0 79 -34 113.5t-114 34.5q-145 0 -166 -113h-239q9 79 33.5 129.5t72.5 89.5q115 92 318 92q126 0 212.5 -38t120.5 -107q22 -43 30.5 -95.5t8.5 -144.5v-391q0 -87 7 -132.5t26 -84.5h-229q-12 47 -12 111 q-79 -131 -269 -131q-167 0 -260.5 73t-93.5 203zM209 1262q0 59 40.5 99t100.5 40q57 0 97 -41t40 -98t-40.5 -98.5t-98.5 -41.5q-57 0 -98 41.5t-41 98.5zM340 289q0 -51 41.5 -84t105.5 -33q57 0 100.5 24t63.5 66q19 49 19 146v55q-124 -15 -181.5 -29t-89.5 -37 q-59 -43 -59 -108zM571 1262q0 59 41 99t101 40q57 0 97 -41t40 -98t-40.5 -98.5t-98.5 -41.5q-57 0 -98.5 41.5t-41.5 98.5z" />
<glyph unicode="&#xe5;" horiz-adv-x="1048" d="M82 256q0 101 57 176t164 115q64 25 113 36t254 48v16q0 79 -34 113.5t-114 34.5q-145 0 -166 -113h-239q9 79 33.5 129.5t72.5 89.5q115 92 318 92q126 0 212.5 -38t120.5 -107q22 -43 30.5 -95.5t8.5 -144.5v-391q0 -87 7 -132.5t26 -84.5h-229q-12 47 -12 111 q-79 -131 -269 -131q-167 0 -260.5 73t-93.5 203zM330 1274q0 86 59.5 145.5t145.5 59.5q83 0 141.5 -60t58.5 -145q0 -84 -59.5 -143.5t-143.5 -59.5q-83 0 -142.5 60t-59.5 143zM340 289q0 -51 41.5 -84t105.5 -33q57 0 100.5 24t63.5 66q19 49 19 146v55 q-124 -15 -181.5 -29t-89.5 -37q-59 -43 -59 -108zM434 1274q0 -40 29 -69t69 -29t69.5 29.5t29.5 70.5q0 40 -28 69t-68 29q-43 0 -72 -28.5t-29 -71.5z" />
<glyph unicode="&#xe6;" horiz-adv-x="1673" d="M84 254q0 164 150 256t430 98v47q0 75 -33 109.5t-105 34.5q-137 0 -164 -137h-245q15 164 124 250.5t298 86.5q111 0 181 -27.5t130 -94.5q70 65 142 93.5t163 28.5q209 0 330 -146t121 -398v-29h-686q2 -120 69 -187t185 -67q72 0 116 26.5t72 86.5l223 -9 q-29 -140 -139 -221.5t-268 -81.5q-276 0 -398 203q-41 -104 -124.5 -153.5t-215.5 -49.5q-164 0 -260 76t-96 205zM342 274q0 -50 36 -79t97 -29q189 0 189 248v14h-21h-12q-139 -1 -214 -41.5t-75 -112.5zM932 606h407q-15 98 -64.5 148.5t-129.5 50.5q-83 0 -138.5 -52 t-74.5 -147z" />
<glyph unicode="&#xe7;" horiz-adv-x="1017" d="M68 485q0 232 129.5 373t341.5 141q173 0 276 -90.5t125 -259.5h-246q-21 150 -155 150q-97 0 -155 -86t-58 -230q0 -146 55.5 -227.5t153.5 -81.5q149 0 170 172h243q-12 -164 -120.5 -268t-270.5 -107l-16 -63q91 -19 138.5 -67.5t47.5 -123.5q0 -88 -61 -147t-152 -59 q-90 0 -176 59v98q81 -41 135 -41q44 0 72 30t28 77q0 52 -34 84t-90 32q-25 0 -64 -8l41 140q-172 47 -265 177.5t-93 325.5z" />
<glyph unicode="&#xe8;" horiz-adv-x="1054" d="M68 475q0 236 129.5 380t343.5 144q206 0 325 -140.5t119 -383.5v-49h-666q6 -120 68 -185t168 -65q139 0 188 109l224 -11q-32 -139 -144.5 -220t-273.5 -81q-221 0 -351 136t-130 366zM141 1432h312l260 -334h-191zM326 610h405q-15 99 -62 147t-130 48 q-164 0 -213 -195z" />
<glyph unicode="&#xe9;" horiz-adv-x="1054" d="M68 475q0 236 129.5 380t343.5 144q206 0 325 -140.5t119 -383.5v-49h-666q6 -120 68 -185t168 -65q139 0 188 109l224 -11q-32 -139 -144.5 -220t-273.5 -81q-221 0 -351 136t-130 366zM326 610h405q-15 99 -62 147t-130 48q-164 0 -213 -195zM371 1098l260 334h311 l-383 -334h-188z" />
<glyph unicode="&#xea;" horiz-adv-x="1054" d="M68 475q0 236 129.5 380t343.5 144q206 0 325 -140.5t119 -383.5v-49h-666q6 -120 68 -185t168 -65q139 0 188 109l224 -11q-32 -139 -144.5 -220t-273.5 -81q-221 0 -351 136t-130 366zM199 1108l247 311h203l248 -311h-227l-123 176l-119 -176h-229zM326 610h405 q-15 99 -62 147t-130 48q-164 0 -213 -195z" />
<glyph unicode="&#xeb;" horiz-adv-x="1054" d="M68 475q0 236 129.5 380t343.5 144q206 0 325 -140.5t119 -383.5v-49h-666q6 -120 68 -185t168 -65q139 0 188 109l224 -11q-32 -139 -144.5 -220t-273.5 -81q-221 0 -351 136t-130 366zM225 1262q0 59 41 99t101 40q57 0 97 -41t40 -98t-40.5 -98.5t-98.5 -41.5 q-57 0 -98.5 41.5t-41.5 98.5zM326 610h405q-15 99 -62 147t-130 48q-164 0 -213 -195zM590 1262q0 59 40.5 99t100.5 40q57 0 97 -41t40 -98t-40.5 -98.5t-98.5 -41.5q-57 0 -98 41.5t-41 98.5z" />
<glyph unicode="&#xec;" horiz-adv-x="534" d="M-88 1432h291l205 -334h-177zM141 0v973h252v-973h-252z" />
<glyph unicode="&#xed;" horiz-adv-x="534" d="M127 1098l207 334h289l-320 -334h-176zM141 0v973h252v-973h-252z" />
<glyph unicode="&#xee;" horiz-adv-x="534" d="M-37 1108l203 311h203l204 -311h-217l-88 182l-86 -182h-219zM141 0v973h252v-973h-252z" />
<glyph unicode="&#xef;" horiz-adv-x="534" d="M-35 1262q0 56 39 94.5t96 38.5q54 0 92.5 -39t38.5 -94q0 -56 -39 -95t-94 -39t-94 39t-39 95zM141 0v973h252v-973h-252zM301 1262q0 56 39 94.5t96 38.5q54 0 92.5 -39t38.5 -94q0 -56 -39 -95t-94 -39t-94 39t-39 95z" />
<glyph unicode="&#xf0;" horiz-adv-x="1097" d="M68 481q0 212 125 355t311 143q43 0 69 -8.5t64 -34.5q-37 60 -62.5 93.5t-74.5 86.5l-138 -80l-79 103l133 78l-94 94l122 82q78 -63 117 -99l156 84l84 -98l-148 -84q132 -134 244 -289q131 -180 131 -409q0 -238 -128.5 -381.5t-340.5 -143.5q-217 0 -354 142 t-137 366zM326 483q0 -135 62.5 -222t160.5 -87q97 0 159 87.5t62 223.5q0 137 -61 223.5t-158 86.5q-101 0 -163 -86t-62 -226z" />
<glyph unicode="&#xf1;" horiz-adv-x="1122" d="M111 973h243q21 -47 21 -125q109 145 289 145q91 0 165.5 -37.5t112.5 -103.5q28 -50 36.5 -105t8.5 -186v-561h-252v506q0 133 -22 184q-39 82 -135 82q-52 0 -95 -27t-65 -73q-25 -54 -25 -174v-498h-252v625q0 179 -4 228.5t-26 119.5zM225 1161q58 217 183 217 q42 0 137 -32q94 -31 121 -31q50 0 100 82l94 -27q-22 -106 -71 -166.5t-113 -60.5q-42 0 -137 31q-99 34 -125 34q-55 0 -84 -75z" />
<glyph unicode="&#xf2;" horiz-adv-x="1097" d="M68 494q0 218 137 361.5t344 143.5q209 0 344 -145t135 -369q0 -223 -135 -367.5t-344 -144.5q-213 0 -347 145t-134 376zM145 1432h310l262 -334h-191zM326 489q0 -141 61 -227t162 -86q98 0 159.5 86.5t61.5 224.5q0 137 -61.5 223.5t-159.5 86.5t-160.5 -86.5 t-62.5 -221.5z" />
<glyph unicode="&#xf3;" horiz-adv-x="1097" d="M68 494q0 218 137 361.5t344 143.5q209 0 344 -145t135 -369q0 -223 -135 -367.5t-344 -144.5q-213 0 -347 145t-134 376zM326 489q0 -141 61 -227t162 -86q98 0 159.5 86.5t61.5 224.5q0 137 -61.5 223.5t-159.5 86.5t-160.5 -86.5t-62.5 -221.5zM381 1098l262 334h309 l-381 -334h-190z" />
<glyph unicode="&#xf4;" horiz-adv-x="1097" d="M68 494q0 218 137 361.5t344 143.5q209 0 344 -145t135 -369q0 -223 -135 -367.5t-344 -144.5q-213 0 -347 145t-134 376zM199 1108l247 311h203l248 -311h-227l-121 176l-121 -176h-229zM326 489q0 -141 61 -227t162 -86q98 0 159.5 86.5t61.5 224.5q0 137 -61.5 223.5 t-159.5 86.5t-160.5 -86.5t-62.5 -221.5z" />
<glyph unicode="&#xf5;" horiz-adv-x="1097" d="M68 494q0 218 137 361.5t344 143.5q209 0 344 -145t135 -369q0 -223 -135 -367.5t-344 -144.5q-213 0 -347 145t-134 376zM240 1161q58 217 182 217q45 0 137 -32q96 -31 123 -31q53 0 98 82l94 -27q-20 -106 -68.5 -166.5t-113.5 -60.5q-41 0 -139 31q-97 34 -123 34 q-58 0 -84 -75zM326 489q0 -141 61 -227t162 -86q98 0 159.5 86.5t61.5 224.5q0 137 -61.5 223.5t-159.5 86.5t-160.5 -86.5t-62.5 -221.5z" />
<glyph unicode="&#xf6;" horiz-adv-x="1097" d="M68 494q0 218 137 361.5t344 143.5q209 0 344 -145t135 -369q0 -223 -135 -367.5t-344 -144.5q-213 0 -347 145t-134 376zM227 1262q0 59 41 99t101 40q57 0 97 -41t40 -98t-40.5 -98.5t-98.5 -41.5q-57 0 -98.5 41.5t-41.5 98.5zM326 492q0 -143 61 -229.5t162 -86.5 q98 0 159.5 86.5t61.5 224.5q0 137 -61.5 223.5t-159.5 86.5t-160.5 -85.5t-62.5 -219.5zM590 1262q0 59 40.5 99t100.5 40q57 0 97 -41t40 -98t-40.5 -98.5t-98.5 -41.5q-57 0 -98 41.5t-41 98.5z" />
<glyph unicode="&#xf7;" horiz-adv-x="1167" d="M98 586v192h973v-192h-973zM442 354q0 60 41 101t101 41q57 0 98 -42t41 -100q0 -57 -41.5 -98t-99.5 -41q-57 0 -98.5 41t-41.5 98zM442 1010q0 60 41 100.5t101 40.5q57 0 98 -41t41 -98q0 -59 -41.5 -100.5t-99.5 -41.5q-57 0 -98.5 41.5t-41.5 98.5z" />
<glyph unicode="&#xf8;" horiz-adv-x="1097" d="M-18 -6l168 184q-47 91 -64.5 155t-17.5 150q0 227 135.5 371.5t347.5 144.5q80 0 135 -19t162 -85l86 88h180l-176 -188q90 -125 90 -312q0 -223 -135 -366.5t-346 -143.5q-85 0 -156.5 25.5t-150.5 83.5l-86 -88h-172zM326 485q0 -59 14 -125l340 377q-45 62 -129 62 q-101 0 -163 -86.5t-62 -227.5zM401 236q43 -37 71.5 -49.5t70.5 -12.5q102 0 164.5 85.5t62.5 223.5q0 63 -22 138z" />
<glyph unicode="&#xf9;" horiz-adv-x="1136" d="M133 406v567h252v-553q0 -115 35 -162q42 -57 131 -57q192 0 192 252v520h252v-672q0 -161 3 -199t22 -102h-238q-17 38 -20 113q-57 -72 -120 -102.5t-153 -30.5q-97 0 -177 39.5t-124 109.5q-55 82 -55 277zM160 1432h311l260 -334h-190z" />
<glyph unicode="&#xfa;" horiz-adv-x="1136" d="M133 406v567h252v-553q0 -115 35 -162q42 -57 131 -57q192 0 192 252v520h252v-672q0 -161 3 -199t22 -102h-238q-17 38 -20 113q-57 -72 -120 -102.5t-153 -30.5q-97 0 -177 39.5t-124 109.5q-55 82 -55 277zM397 1098l262 334h310l-381 -334h-191z" />
<glyph unicode="&#xfb;" horiz-adv-x="1136" d="M133 406v567h252v-553q0 -115 35 -162q42 -57 131 -57q192 0 192 252v520h252v-672q0 -161 3 -199t22 -102h-238q-17 38 -20 113q-57 -72 -120 -102.5t-153 -30.5q-97 0 -177 39.5t-124 109.5q-55 82 -55 277zM215 1108l248 311h203l247 -311h-227l-123 176l-119 -176 h-229z" />
<glyph unicode="&#xfc;" horiz-adv-x="1136" d="M133 406v567h252v-553q0 -115 35 -162q42 -57 131 -57q192 0 192 252v520h252v-672q0 -161 3 -199t22 -102h-238q-17 38 -20 113q-57 -72 -120 -102.5t-153 -30.5q-97 0 -177 39.5t-124 109.5q-55 82 -55 277zM244 1262q0 59 40.5 99t100.5 40q57 0 97 -41t40 -98 t-40.5 -98.5t-98.5 -41.5q-57 0 -98 41.5t-41 98.5zM606 1262q0 59 41 99t101 40q57 0 97 -41t40 -98t-41 -98.5t-99 -41.5q-57 0 -98 41.5t-41 98.5z" />
<glyph unicode="&#xfd;" horiz-adv-x="1021" d="M33 973h266l217 -742l225 742h263l-330 -946q-48 -135 -63 -169.5t-48 -86.5q-60 -98 -155 -140.5t-256 -42.5q-54 0 -95 2v220q111 -2 170.5 9.5t93 42.5t56.5 93zM346 1098l260 334h312l-381 -334h-191z" />
<glyph unicode="&#xfe;" horiz-adv-x="1122" d="M141 -403v1777h252v-516q47 71 107 103t145 32q183 0 296.5 -138t113.5 -361q0 -224 -113.5 -369t-290.5 -145q-82 0 -142.5 29t-115.5 95v-507h-252zM389 481q0 -133 57 -212t152 -79q94 0 147.5 80t53.5 219q0 137 -53.5 215t-147.5 78q-97 0 -153 -81t-56 -220z" />
<glyph unicode="&#xff;" horiz-adv-x="1021" d="M33 973h266l217 -742l225 742h263l-330 -946q-48 -135 -63 -169.5t-48 -86.5q-60 -98 -155 -140.5t-256 -42.5q-54 0 -95 2v220q111 -2 170.5 9.5t93 42.5t56.5 93zM197 1262q0 59 40.5 99t100.5 40q57 0 97 -41t40 -98t-40.5 -98.5t-98.5 -41.5q-57 0 -98 41.5t-41 98.5 zM561 1262q0 59 40.5 99t100.5 40q57 0 97.5 -41t40.5 -98t-41 -98.5t-99 -41.5q-57 0 -98 41.5t-41 98.5z" />
<glyph unicode="&#x152;" horiz-adv-x="1972" d="M74 682q0 333 164.5 522t453.5 189q114 0 197 -28.5t149 -90.5v92h858v-223h-598v-324h545v-223h-545v-373h621v-223h-881v92q-71 -65 -149.5 -92t-196.5 -27q-244 0 -405 140q-213 186 -213 569zM346 688q0 -237 89 -364t255 -127q163 0 255.5 129t92.5 358 q0 226 -92.5 355.5t-253.5 129.5q-163 0 -254.5 -127t-91.5 -354z" />
<glyph unicode="&#x153;" horiz-adv-x="1757" d="M68 489q0 224 135.5 367t349.5 143q115 0 197 -40t141 -125q78 89 159.5 127t190.5 38q209 0 328 -140.5t119 -387.5v-45h-684q3 -122 66.5 -188t180.5 -66q151 0 195 113l223 -9q-32 -140 -143.5 -221.5t-270.5 -81.5q-222 0 -364 160q-73 -86 -151.5 -124t-182.5 -38 q-217 0 -353 144.5t-136 373.5zM326 485q0 -140 61.5 -226.5t161.5 -86.5q98 0 160.5 87.5t62.5 225.5t-62 226t-159 88q-101 0 -163 -87t-62 -227zM1014 602h422q-30 205 -205 205t-217 -205z" />
<glyph unicode="&#x178;" horiz-adv-x="1150" d="M0 1366h293l287 -545l282 545h289l-444 -827v-539h-263v539zM236 1632q0 64 44 108t107 44q61 0 105.5 -44t44.5 -106q0 -63 -44 -107t-106 -44q-63 0 -107 43.5t-44 105.5zM616 1632q0 64 44.5 108t107.5 44q62 0 106 -44t44 -106q0 -63 -44 -107t-106 -44 q-63 0 -107.5 43.5t-44.5 105.5z" />
<glyph unicode="&#x2c6;" d="M164 1108l248 311h202l248 -311h-227l-121 176l-121 -176h-229z" />
<glyph unicode="&#x2dc;" d="M195 1161q58 217 182 217q42 0 137 -32q96 -31 123 -31q51 0 98 82l94 -27q-22 -106 -71 -166.5t-113 -60.5q-42 0 -137 31q-97 34 -125 34q-56 0 -82 -75z" />
<glyph unicode="&#x2000;" horiz-adv-x="926" />
<glyph unicode="&#x2001;" horiz-adv-x="1853" />
<glyph unicode="&#x2002;" horiz-adv-x="926" />
<glyph unicode="&#x2003;" horiz-adv-x="1853" />
<glyph unicode="&#x2004;" horiz-adv-x="617" />
<glyph unicode="&#x2005;" horiz-adv-x="463" />
<glyph unicode="&#x2006;" horiz-adv-x="308" />
<glyph unicode="&#x2007;" horiz-adv-x="308" />
<glyph unicode="&#x2008;" horiz-adv-x="231" />
<glyph unicode="&#x2009;" horiz-adv-x="370" />
<glyph unicode="&#x200a;" horiz-adv-x="102" />
<glyph unicode="&#x2010;" horiz-adv-x="534" d="M0 426v182h535v-182h-535z" />
<glyph unicode="&#x2011;" horiz-adv-x="534" d="M0 426v182h535v-182h-535z" />
<glyph unicode="&#x2012;" horiz-adv-x="534" d="M0 426v182h535v-182h-535z" />
<glyph unicode="&#x2013;" d="M90 426v182h842v-182h-842z" />
<glyph unicode="&#x2014;" horiz-adv-x="1296" d="M0 426v182h1296v-182h-1296z" />
<glyph unicode="&#x2018;" horiz-adv-x="423" d="M78 1079q0 72 37.5 154.5t103.5 157.5h117q-40 -45 -70 -114.5t-30 -119.5q133 -18 133 -125q0 -58 -41.5 -97.5t-100.5 -39.5q-67 0 -108 50.5t-41 133.5z" />
<glyph unicode="&#x2019;" horiz-adv-x="423" d="M55 1255q0 58 41 98t101 40q67 0 108 -51t41 -134q0 -140 -141 -313h-115q44 55 71 119t27 116q-133 18 -133 125z" />
<glyph unicode="&#x201a;" horiz-adv-x="423" d="M55 129q0 58 41.5 97.5t100.5 39.5q67 0 108 -50.5t41 -133.5q0 -140 -141 -313h-115q44 55 71 119t27 116q-133 18 -133 125z" />
<glyph unicode="&#x201c;" horiz-adv-x="776" d="M78 1079q0 72 37.5 154.5t103.5 157.5h117q-40 -45 -70 -114.5t-30 -119.5q133 -18 133 -125q0 -58 -41.5 -97.5t-100.5 -39.5q-67 0 -108 50.5t-41 133.5zM430 1079q0 71 37.5 154t103.5 158h117q-41 -45 -69.5 -113.5t-30.5 -120.5q135 -18 135 -125q0 -58 -41.5 -97.5 t-101.5 -39.5q-68 0 -109 50.5t-41 133.5z" />
<glyph unicode="&#x201d;" horiz-adv-x="776" d="M55 1255q0 58 41 98t101 40q67 0 108 -51t41 -134q0 -140 -141 -313h-115q44 55 71 119t27 116q-133 18 -133 125zM408 1255q0 58 41.5 98t101.5 40q67 0 108 -51t41 -134q0 -142 -143 -313h-115q44 55 72 119t29 116q-135 18 -135 125z" />
<glyph unicode="&#x201e;" horiz-adv-x="776" d="M55 129q0 58 41.5 97.5t100.5 39.5q67 0 108 -50.5t41 -133.5q0 -140 -141 -313h-115q44 55 71 119t27 116q-133 18 -133 125zM408 129q0 58 41.5 97.5t101.5 39.5q67 0 108 -50.5t41 -133.5q0 -142 -143 -313h-115q44 55 72 119t29 116q-135 18 -135 125z" />
<glyph unicode="&#x2022;" horiz-adv-x="1366" d="M401 692q0 120 83.5 202.5t205.5 82.5q114 0 196.5 -83.5t82.5 -199.5q0 -118 -83 -201t-200 -83t-201 82.5t-84 199.5z" />
<glyph unicode="&#x2026;" horiz-adv-x="1462" d="M100 141q0 66 46 112t112 46q64 0 110 -46.5t46 -111.5t-46 -110t-112 -45q-65 0 -110.5 45.5t-45.5 109.5zM573 141q0 66 46 112t112 46q64 0 110 -46.5t46 -111.5t-46 -110t-112 -45q-65 0 -110.5 45.5t-45.5 109.5zM1049 141q0 66 45.5 112t111.5 46q64 0 110 -46.5 t46 -111.5t-46 -110t-112 -45q-64 0 -109.5 45t-45.5 110z" />
<glyph unicode="&#x202f;" horiz-adv-x="370" />
<glyph unicode="&#x2039;" horiz-adv-x="622" d="M55 475l224 504h221l-185 -504l185 -475h-221z" />
<glyph unicode="&#x203a;" horiz-adv-x="622" d="M123 0l184 504l-184 475h221l223 -475l-223 -504h-221z" />
<glyph unicode="&#x205f;" horiz-adv-x="463" />
<glyph unicode="&#x20ac;" horiz-adv-x="1167" d="M0 457l63 143h99q-2 23 -2 70q0 37 2 55h-148l64 143h100q46 257 185 390t362 133q272 0 428 -191l-106 -231q-74 116 -147 163.5t-173 47.5q-120 0 -191 -76t-102 -236h567l-65 -143h-518q-2 -25 -2 -66q0 -36 2 -59h461l-66 -143h-369q19 -139 85.5 -201.5t197.5 -62.5 q135 0 229.5 60.5t167.5 195.5v-297q-91 -97 -192.5 -139t-247.5 -42q-229 0 -348.5 114.5t-159.5 371.5h-176z" />
<glyph unicode="&#x2122;" horiz-adv-x="1695" d="M10 1225v141h617v-141h-221v-678h-173v678h-223zM711 547v819h235l221 -637l224 637h233v-819h-156v612l-215 -612h-176l-211 612v-612h-155z" />
<glyph unicode="&#x25fc;" horiz-adv-x="972" d="M0 0v973h973v-973h-973z" />
</font>
</defs>
</svg>
